<svg width="1200" height="825" viewBox="0 0 1200 825" fill="none" xmlns="http://www.w3.org/2000/svg">
  <rect width="1200" height="825" rx="36" fill="#EEF6E8"/>
  <circle cx="1004" cy="136" r="74" fill="#F2B134" fill-opacity="0.62"/>
  <path d="M0 542C138 476 271 448 431 462C640 481 839 563 1200 496V825H0V542Z" fill="#8DC47A"/>
  <path d="M0 628C174 575 348 576 515 622C707 674 903 726 1200 665V825H0V628Z" fill="#577C47"/>
  <path d="M0 687C187 670 427 701 590 742C748 782 938 809 1200 760V825H0V687Z" fill="#41663A"/>
  <g opacity="0.18">
    <circle cx="197" cy="201" r="132" fill="#3B84C4"/>
    <circle cx="406" cy="139" r="96" fill="#E96C3A"/>
  </g>
  <g transform="translate(160 298)">
    <rect x="0" y="0" width="16" height="154" rx="8" fill="#F4E6CF"/>
    <rect x="24" y="0" width="16" height="154" rx="8" fill="#F4E6CF"/>
    <rect x="48" y="0" width="16" height="154" rx="8" fill="#F4E6CF"/>
    <rect x="-10" y="148" width="84" height="12" rx="6" fill="#E2C8A2"/>
  </g>
  <g transform="translate(760 252) rotate(26)">
    <rect width="36" height="260" rx="18" fill="#C98B50"/>
    <rect x="6" y="24" width="24" height="190" rx="12" fill="#E7B277"/>
  </g>
  <g transform="translate(871 420)">
    <circle cx="0" cy="0" r="36" fill="#C94D34"/>
    <path d="M-22 0H22" stroke="#F7E6D4" stroke-width="3"/>
    <path d="M0 -22V22" stroke="#F7E6D4" stroke-width="3"/>
    <path d="M-16 -16L16 16" stroke="#F7E6D4" stroke-width="3"/>
    <path d="M16 -16L-16 16" stroke="#F7E6D4" stroke-width="3"/>
  </g>
  <g transform="translate(354 402)">
    <circle cx="0" cy="0" r="42" fill="#214D78" fill-opacity="0.9"/>
    <circle cx="0" cy="-58" r="26" fill="#E4A66A"/>
    <path d="M-38 -25H38L54 78H-54L-38 -25Z" fill="#F2B134"/>
  </g>
  <g transform="translate(520 430)">
    <circle cx="0" cy="0" r="44" fill="#C94D34" fill-opacity="0.92"/>
    <circle cx="0" cy="-62" r="26" fill="#E4A66A"/>
    <path d="M-40 -28H40L58 88H-58L-40 -28Z" fill="#F6E2C5"/>
  </g>
  <g transform="translate(618 492)">
    <rect x="0" y="0" width="160" height="78" rx="39" fill="#F6E2C5" fill-opacity="0.94"/>
    <rect x="16" y="14" width="128" height="50" rx="25" fill="#E96C3A" fill-opacity="0.92"/>
    <circle cx="34" cy="39" r="6" fill="#FFF4E7"/>
    <circle cx="126" cy="39" r="6" fill="#FFF4E7"/>
  </g>
  <text x="78" y="104" fill="#24402B" font-family="Georgia, serif" font-size="58" font-weight="700">Cricket &amp; Family Picnic Day</text>
  <text x="78" y="762" fill="#E7F2DB" font-family="Arial, sans-serif" font-size="28" letter-spacing="3">OUTDOORS  |  SPORT  |  COMMUNITY</text>
</svg>
