<svg width="1200" height="825" viewBox="0 0 1200 825" fill="none" xmlns="http://www.w3.org/2000/svg">
  <rect width="1200" height="825" rx="36" fill="#FFF7EE"/>
  <circle cx="231" cy="225" r="170" fill="#E96C3A" fill-opacity="0.55"/>
  <circle cx="510" cy="205" r="180" fill="#F2B134" fill-opacity="0.5"/>
  <circle cx="822" cy="235" r="190" fill="#3B84C4" fill-opacity="0.48"/>
  <circle cx="1005" cy="445" r="168" fill="#7BC768" fill-opacity="0.48"/>
  <circle cx="455" cy="515" r="200" fill="#D04AA0" fill-opacity="0.34"/>
  <circle cx="835" cy="610" r="150" fill="#F0715B" fill-opacity="0.3"/>
  <path d="M0 650C90 615 163 593 264 610C373 629 461 700 595 708C748 717 882 617 1016 602C1090 594 1149 605 1200 625V825H0V650Z" fill="#FFF2DD"/>
  <g opacity="0.9">
    <circle cx="341" cy="232" r="15" fill="#FFFFFF" fill-opacity="0.45"/>
    <circle cx="566" cy="112" r="10" fill="#FFFFFF" fill-opacity="0.5"/>
    <circle cx="736" cy="335" r="12" fill="#FFFFFF" fill-opacity="0.45"/>
    <circle cx="920" cy="244" r="16" fill="#FFFFFF" fill-opacity="0.55"/>
    <circle cx="1035" cy="535" r="13" fill="#FFFFFF" fill-opacity="0.45"/>
    <circle cx="446" cy="615" r="12" fill="#FFFFFF" fill-opacity="0.45"/>
  </g>
  <text x="78" y="106" fill="#873F1A" font-family="Georgia, serif" font-size="58" font-weight="700">Holi Colour Fest</text>
  <text x="78" y="760" fill="#A86438" font-family="Arial, sans-serif" font-size="28" letter-spacing="3">SPRING  |  JOY  |  COLOUR</text>
</svg>
